<?xml version="1.0" encoding="utf-8"?>
<svg version="1.1" xmlns:xlink="http://www.w3.org/1999/xlink" width="32px" height="43px" xmlns="http://www.w3.org/2000/svg">
  <g transform="matrix(1 0 0 1 -1423 -4392 )">
    <path d="M 32 16.125  C 32 27.0111666806641  17.7502222083333 43  16 43  C 14.2773333333333 43  0 27.0111666806641  0 16.125  C 0 7.21940850281411  7.16344409581555 0  16 0  C 24.8365559972927 0  32 7.21940864925968  32 16.1250002402812  Z M 24.888888875 17.0208333193359  C 24.888888875 12.0732824431656  20.9091977686031 8.0625  16 8.0625  C 11.0908022313969 8.0625  7.111111125 12.0732824431656  7.111111125 17.0208333193359  C 7.111111125 21.9683841955063  11.0908022313969 25.9791666386719  16 25.9791666386719  C 20.9091977686031 25.9791666386719  24.888888875 21.9683841955063  24.888888875 17.0208333193359  Z M 21.3333333333333 17.0208333193359  C 21.3333333333333 19.9893638496765  18.9455186657642 22.3958333193359  16 22.3958333193359  C 13.0544813342358 22.3958333193359  10.6666666666667 19.9893638496765  10.6666666666667 17.0208333193359  C 10.6666666666667 14.0523027889954  13.0544813342358 11.6458333193359  16 11.6458333193359  C 18.9455186657642 11.6458333193359  21.3333333333333 14.0523027889954  21.3333333333333 17.0208333193359  Z " fill-rule="nonzero" fill="#31c0fd" stroke="none" transform="matrix(1 0 0 1 1423 4392 )" />
  </g>
</svg>